# xmcd
#
# Track frame offsets:
# 150
# 17177
# 35912
# 54502
# 73130
# 94375
# 110732
# 133192
# 148182
# 165612
#
# Disc length: 2413 seconds
#
#
# Revision: 0
# Processed by: cddbd v1.5.2PL0 Copyright (c) Steve Scherf et al.
# Submitted via: FreeRIP 2.944 
#
DISCID=9e096b0a
DTITLE=Peregrine Way_1 - 800 - Darling - 1 - 800 - Darling
DYEAR=1900
DGENRE=Country
TTITLE0=American Man and Woman
TTITLE1=1 - 800 - Darling
TTITLE2=True Blue Lover
TTITLE3=Listen Hard
TTITLE4=Love Flows
TTITLE5=Double Dose
TTITLE6=Ghost Of Time
TTITLE7=Countryfied
TTITLE8=Will You
TTITLE9=Stealing Kisses
EXTD=
EXTT0=
EXTT1=
EXTT2=
EXTT3=
EXTT4=
EXTT5=
EXTT6=
EXTT7=
EXTT8=
EXTT9=
PLAYORDER=
